<svg width="24" height="25" viewBox="0 0 24 25" fill="none" xmlns="http://www.w3.org/2000/svg">
<mask id="mask0_85_2271" style="mask-type:alpha" maskUnits="userSpaceOnUse" x="0" y="0" width="24" height="25">
<rect y="0.5" width="24" height="24" fill="#D9D9D9"/>
</mask>
<g mask="url(#mask0_85_2271)">
<path d="M12 22.5C10.5945 22.5 9.28342 22.2431 8.06675 21.7293C6.85008 21.2153 5.79175 20.5083 4.89175 19.6083C3.99175 18.7083 3.28475 17.6499 2.77075 16.4333C2.25692 15.2166 2 13.9055 2 12.5C2 11.1055 2.25692 9.79992 2.77075 8.58325C3.28475 7.36658 3.99175 6.30825 4.89175 5.40825C5.79175 4.50825 6.85008 3.79858 8.06675 3.27925C9.28342 2.75975 10.5945 2.5 12 2.5C13.1945 2.5 14.3139 2.68608 15.3583 3.05825C16.4028 3.43058 17.35 3.9445 18.2 4.6L17 5.80825C16.3 5.28608 15.5306 4.88192 14.6918 4.59575C13.8527 4.30975 12.9555 4.16675 12 4.16675C9.65 4.16675 7.67358 4.96808 6.07075 6.57075C4.46808 8.17358 3.66675 10.15 3.66675 12.5C3.66675 14.85 4.46808 16.8264 6.07075 18.4293C7.67358 20.0319 9.65 20.8333 12 20.8333C12.5888 20.8333 13.1583 20.7778 13.7083 20.6668C14.2583 20.5556 14.7888 20.3917 15.3 20.175L16.55 21.45C15.8667 21.7833 15.1444 22.0417 14.3833 22.225C13.6223 22.4083 12.8278 22.5 12 22.5ZM19.1667 20.3333V17.3333H16.1668V15.6668H19.1667V12.6668H20.8333V15.6668H23.8333V17.3333H20.8333V20.3333H19.1667ZM10.55 17.0668L6.38325 12.8833L7.6 11.6668L10.55 14.6168L20.7833 4.375L22.0168 5.59175L10.55 17.0668Z" fill="#0054A6"/>
</g>
</svg>
