<svg width="70" height="23" viewBox="0 0 70 23" fill="none" xmlns="http://www.w3.org/2000/svg">
<g clip-path="url(#clip0_16_81)">
<path d="M20.7723 22.8543C19.4602 22.6153 18.5244 22.1293 17.7135 21.2655C16.6521 20.1352 16.442 19.4881 16.3191 16.9713L16.2018 14.5703L15.7804 15.9127C15.2723 17.5314 14.0637 19.2533 12.8588 20.075C11.0335 21.32 10.0959 21.5041 5.03428 21.6116L0.306213 21.7121V20.9996C0.306213 19.21 1.53156 17.2654 3.10228 16.5623C3.87236 16.2176 4.72778 16.1054 6.69218 16.0914L9.27113 16.0731L7.87056 15.6317C4.89863 14.695 3.20881 13.2424 2.21824 10.7729C1.75084 9.60747 1.67195 8.85537 1.58606 4.74592L1.48803 0.050293L2.4894 0.182693C4.08744 0.393973 5.66667 1.27713 6.4013 2.37033C7.00096 3.26268 7.07163 3.61548 7.18333 6.27525C7.27935 8.5613 7.34916 8.99893 7.50334 8.28143C7.85017 6.66748 8.61099 5.23211 9.76339 4.01771C11.7343 1.94074 14.0231 1.3439 20.0499 1.33543L23.4605 1.33064L23.3089 2.42088C23.004 4.61366 21.5971 6.38633 19.7633 6.88845C19.2609 7.02598 17.9103 7.14194 16.7621 7.1461L14.6744 7.1537L16.3005 7.70009C19.0192 8.6136 20.7854 10.3221 21.5827 12.8097C22.0269 14.196 22.3837 22.5378 22.0123 22.8564C21.894 22.9578 21.3361 22.9569 20.7723 22.8543ZM14.0167 15.4408C15.2373 14.8698 16.2711 13.1589 16.2711 11.7097C16.2711 10.2916 15.9443 9.40556 15.0888 8.50372C12.3114 5.57569 7.28267 7.61621 7.34187 11.6472C7.39174 15.0481 10.7618 16.9636 14.0167 15.441L14.0167 15.4408ZM31.6602 18.1819C31.1408 17.9912 30.45 17.5891 30.1251 17.2882L29.5343 16.7411V17.3886C29.5343 18.012 29.4841 18.036 28.1834 18.036H26.8326V9.80445V1.57287H27.392C28.8685 1.57287 29.7799 3.10089 29.7799 5.57632V7.17427L30.4554 6.7009C31.4846 5.97958 33.0304 5.60567 34.2378 5.78589C36.7792 6.16517 38.4285 7.95312 38.9372 10.881C39.4318 13.7272 38.2774 16.6777 36.1998 17.8776C35.1718 18.4713 32.8691 18.6257 31.6602 18.1819ZM34.3604 15.9448C35.5314 15.3971 36.166 14.0906 36.166 12.2273C36.166 9.6702 35.0961 8.14034 33.1725 7.94738C30.9772 7.7271 29.6646 9.28966 29.6717 12.1143C29.6769 14.1108 30.2721 15.3163 31.5621 15.9432C32.5822 16.4389 33.3032 16.4393 34.3604 15.9448ZM49.2442 18.2124C47.4145 17.5247 46.4754 15.9261 46.824 14.0935C47.1756 12.2459 48.1345 11.6579 51.6879 11.1102C54.3339 10.7025 55.0784 10.336 55.0784 9.44129C55.0784 8.67164 54.2695 8.06899 53.062 7.93896C51.691 7.79129 50.7387 8.17142 50.2173 9.07443C49.8348 9.73707 49.6836 9.80155 48.5082 9.80293C47.0683 9.80462 46.9713 9.64618 47.5611 8.2549C48.6212 5.75396 53.7186 4.84074 56.3418 6.68185C57.5857 7.55495 57.7802 8.37051 57.7802 12.7139C57.7802 15.7303 57.8646 16.7682 58.1549 17.3216C58.361 17.7145 58.665 18.0458 58.8304 18.0578C58.9957 18.0698 58.7514 18.1871 58.2873 18.3184C57.1747 18.6334 55.9165 18.3814 55.4711 17.7544L55.1128 17.2501L54.0382 17.7629C52.7081 18.3976 50.3304 18.6205 49.2446 18.2123L49.2442 18.2124ZM53.3611 15.949C53.9082 15.7333 54.463 15.3591 54.5942 15.1176C54.8878 14.5769 54.9129 12.1479 54.6231 12.3246C54.5079 12.3948 53.5961 12.5765 52.5968 12.7283C50.4262 13.0581 49.9732 13.2675 49.6568 14.0881C49.3172 14.9687 49.598 15.6048 50.4965 15.9902C51.523 16.4304 52.1644 16.4211 53.3611 15.949ZM62.8151 18.2939C59.8427 17.5806 58.3658 15.2843 58.5662 11.6866C58.7244 8.84426 59.5891 7.34224 61.6617 6.30918C64.2342 5.02704 68.3795 6.01475 69.3811 8.14852C70.2657 10.0331 70.2604 10.0464 68.6303 10.0464C67.2692 10.0464 67.1558 10.0035 67.0107 9.43367C66.8226 8.69515 65.5363 7.86964 64.5716 7.86841C62.7381 7.86599 61.5216 9.16166 61.2912 11.362C61.101 13.1785 61.3673 14.2784 62.2322 15.2495C63.6923 16.8887 65.9913 16.5353 66.8895 14.5337C67.3771 13.4472 67.3943 13.436 68.5842 13.436C69.2453 13.436 69.8344 13.5177 69.8932 13.6176C69.9521 13.7175 69.8509 14.2957 69.6685 14.9025C68.8898 17.4921 65.815 19.0139 62.8151 18.2939ZM39.8502 11.9708V5.90559L41.1396 5.97877C42.3946 6.04998 42.4324 6.07362 42.5519 6.8608L42.6747 7.66965L43.2888 7.01118C44.0249 6.22177 45.2096 5.6888 46.2283 5.6888C46.9672 5.6888 46.973 5.69911 46.973 7.02038V8.35195H45.8763C45.008 8.35195 44.6048 8.50321 43.9406 9.07808C42.83 10.0393 42.5519 11.2241 42.5519 14.9961V18.0362H41.2011H39.8502L39.8502 11.9708Z" fill="#EB078E"/>
</g>
<defs>
<clipPath id="clip0_16_81">
<rect width="70" height="23" fill="white"/>
</clipPath>
</defs>
</svg>
