<svg width="24" height="25" viewBox="0 0 24 25" fill="none" xmlns="http://www.w3.org/2000/svg">
<mask id="mask0_85_2308" style="mask-type:alpha" maskUnits="userSpaceOnUse" x="0" y="0" width="24" height="25">
<rect y="0.5" width="24" height="24" fill="#D9D9D9"/>
</mask>
<g mask="url(#mask0_85_2308)">
<path d="M16.5 10.25C16.0722 10.25 15.7152 10.1069 15.4292 9.82075C15.1431 9.53475 15 9.17783 15 8.75C15 8.32217 15.1431 7.96525 15.4292 7.67925C15.7152 7.39308 16.0722 7.25 16.5 7.25C16.9278 7.25 17.2847 7.39308 17.5707 7.67925C17.8569 7.96525 18 8.32217 18 8.75C18 9.17783 17.8569 9.53475 17.5707 9.82075C17.2847 10.1069 16.9278 10.25 16.5 10.25ZM7.49999 10.25C7.07216 10.25 6.71524 10.1069 6.42924 9.82075C6.14307 9.53475 5.99999 9.17783 5.99999 8.75C5.99999 8.32217 6.14307 7.96525 6.42924 7.67925C6.71524 7.39308 7.07216 7.25 7.49999 7.25C7.92782 7.25 8.28474 7.39308 8.57074 7.67925C8.85691 7.96525 8.99999 8.32217 8.99999 8.75C8.99999 9.17783 8.85691 9.53475 8.57074 9.82075C8.28474 10.1069 7.92782 10.25 7.49999 10.25ZM12 13C11.5722 13 11.2152 12.8569 10.9292 12.5707C10.6431 12.2847 10.5 11.9278 10.5 11.5C10.5 11.0722 10.6431 10.7152 10.9292 10.4292C11.2152 10.1431 11.5722 10 12 10C12.4278 10 12.7847 10.1431 13.0707 10.4292C13.3569 10.7152 13.5 11.0722 13.5 11.5C13.5 11.9278 13.3569 12.2847 13.0707 12.5707C12.7847 12.8569 12.4278 13 12 13ZM12 7.5C11.5722 7.5 11.2152 7.35692 10.9292 7.07075C10.6431 6.78475 10.5 6.42783 10.5 6C10.5 5.57217 10.6431 5.21525 10.9292 4.92925C11.2152 4.64308 11.5722 4.5 12 4.5C12.4278 4.5 12.7847 4.64308 13.0707 4.92925C13.3569 5.21525 13.5 5.57217 13.5 6C13.5 6.42783 13.3569 6.78475 13.0707 7.07075C12.7847 7.35692 12.4278 7.5 12 7.5ZM12 20.5C11.6778 20.5 11.3487 20.475 11.0125 20.425C10.6763 20.375 10.3499 20.3083 10.0332 20.225V16.6332C10.0332 16.0499 10.2207 15.5486 10.5957 15.1293C10.9707 14.7098 11.4388 14.5 12 14.5C12.5612 14.5 13.0292 14.7098 13.4042 15.1293C13.7792 15.5486 13.9667 16.0499 13.9667 16.6332V20.225C13.6501 20.3083 13.3237 20.375 12.9875 20.425C12.6513 20.475 12.3222 20.5 12 20.5ZM8.53324 19.7167C8.21107 19.5834 7.89307 19.4334 7.57924 19.2667C7.26524 19.1001 6.96657 18.9167 6.68324 18.7167C6.21657 18.3944 5.84574 17.9666 5.57074 17.4332C5.29574 16.8999 5.15824 16.3277 5.15824 15.7167C5.15824 15.2834 5.11524 14.8737 5.02924 14.4875C4.94307 14.1013 4.77774 13.7416 4.53324 13.4082C4.35557 13.2027 4.03757 12.8819 3.57924 12.4457C3.12091 12.0097 2.70007 11.6001 2.31674 11.2167C2.11107 11.0001 2.00824 10.7584 2.00824 10.4917C2.00824 10.2251 2.11107 9.98892 2.31674 9.78325C2.53341 9.56658 2.76674 9.45825 3.01674 9.45825C3.26674 9.45825 3.50007 9.56658 3.71674 9.78325L7.55824 13.4082C7.88057 13.7082 8.12366 14.0652 8.28749 14.4792C8.45132 14.8931 8.53324 15.3167 8.53324 15.75V19.7167ZM15.4667 19.7167V15.75C15.4667 15.3167 15.5639 14.8917 15.7582 14.475C15.9527 14.0583 16.2083 13.7027 16.525 13.4082L20.2832 9.78325C20.4832 9.59992 20.7207 9.50825 20.9957 9.50825C21.2707 9.50825 21.4999 9.59992 21.6832 9.78325C21.8889 9.98892 21.9917 10.2251 21.9917 10.4917C21.9917 10.7584 21.8889 11.0001 21.6832 11.2167C21.2999 11.6001 20.8791 12.0028 20.4207 12.425C19.9624 12.8472 19.6444 13.1749 19.4667 13.4082C19.2222 13.7416 19.0569 14.1013 18.9707 14.4875C18.8847 14.8737 18.8417 15.2834 18.8417 15.7167C18.8417 16.3277 18.7042 16.9013 18.4292 17.4375C18.1542 17.9737 17.7806 18.4028 17.3082 18.725C17.0306 18.9083 16.7347 19.0861 16.4207 19.2582C16.1069 19.4306 15.7889 19.5834 15.4667 19.7167Z" fill="#0054A6"/>
</g>
</svg>
