<svg width="24" height="25" viewBox="0 0 24 25" fill="none" xmlns="http://www.w3.org/2000/svg">
<mask id="mask0_85_2247" style="mask-type:alpha" maskUnits="userSpaceOnUse" x="0" y="0" width="24" height="25">
<rect y="0.5" width="24" height="24" fill="#D9D9D9"/>
</mask>
<g mask="url(#mask0_85_2247)">
<path d="M7.98326 18.3333H16.0168V16.6668H7.98326V18.3333ZM7.98326 14.1668H16.0168V12.5H7.98326V14.1668ZM5.66676 22.5C5.21676 22.5 4.82643 22.3348 4.49576 22.0043C4.16526 21.6736 4.00001 21.2833 4.00001 20.8333V4.16675C4.00001 3.71675 4.16526 3.32642 4.49576 2.99575C4.82643 2.66525 5.21676 2.5 5.66676 2.5H14.35L20 8.15V20.8333C20 21.2833 19.8348 21.6736 19.5043 22.0043C19.1736 22.3348 18.7833 22.5 18.3333 22.5H5.66676ZM13.5168 8.93325H18.3333L13.5168 4.16675V8.93325Z" fill="#0054A6"/>
</g>
</svg>
