<svg width="24" height="25" viewBox="0 0 24 25" fill="none" xmlns="http://www.w3.org/2000/svg">
<mask id="mask0_85_2199" style="mask-type:alpha" maskUnits="userSpaceOnUse" x="0" y="0" width="24" height="25">
<rect y="0.5" width="24" height="24" fill="#D9D9D9"/>
</mask>
<g mask="url(#mask0_85_2199)">
<path d="M15.5 20.4918L11.4168 16.4083L12.6 15.225L15.5 18.125L21.3668 12.2583L22.55 13.4418L15.5 20.4918ZM21 10.2833H19.3333V5.16675H17.6668V7.66675H6.33325V5.16675H4.66675V19.8333H10.85V21.5H4.66675C4.19442 21.5 3.79858 21.3403 3.47925 21.0208C3.15975 20.7014 3 20.3056 3 19.8333V5.16675C3 4.69442 3.15975 4.29858 3.47925 3.97925C3.79858 3.65975 4.19442 3.5 4.66675 3.5H9.425C9.56383 2.91667 9.87492 2.4375 10.3583 2.0625C10.8416 1.6875 11.3888 1.5 12 1.5C12.6222 1.5 13.1736 1.6875 13.6543 2.0625C14.1347 2.4375 14.4444 2.91667 14.5833 3.5H19.3333C19.8056 3.5 20.2014 3.65975 20.5208 3.97925C20.8403 4.29858 21 4.69442 21 5.16675V10.2833ZM12 5.16675C12.2833 5.16675 12.5208 5.07092 12.7125 4.87925C12.9042 4.68758 13 4.45008 13 4.16675C13 3.88342 12.9042 3.64592 12.7125 3.45425C12.5208 3.26258 12.2833 3.16675 12 3.16675C11.7167 3.16675 11.4792 3.26258 11.2875 3.45425C11.0958 3.64592 11 3.88342 11 4.16675C11 4.45008 11.0958 4.68758 11.2875 4.87925C11.4792 5.07092 11.7167 5.16675 12 5.16675Z" fill="#0054A6"/>
</g>
</svg>
