<svg width="19" height="18" viewBox="0 0 19 18" fill="none" xmlns="http://www.w3.org/2000/svg">
<path d="M0.849625 2.46595C0.849625 1.88874 1.05233 1.41255 1.45773 1.03738C1.86313 0.662194 2.39017 0.474609 3.03881 0.474609C3.67589 0.474609 4.19132 0.659302 4.58515 1.02872C4.99055 1.40967 5.19325 1.90605 5.19325 2.5179C5.19325 3.07201 4.99635 3.53376 4.60252 3.90318C4.19712 4.28413 3.6643 4.47461 3.00406 4.47461H2.98669C2.34962 4.47461 1.83419 4.28413 1.44036 3.90318C1.04653 3.52223 0.849625 3.04315 0.849625 2.46595ZM1.07549 17.6175V6.05036H4.93264V17.6175H1.07549ZM7.0697 17.6175H10.9268V11.1586C10.9268 10.7545 10.9732 10.4428 11.0658 10.2235C11.228 9.83102 11.4741 9.49913 11.8043 9.22785C12.1344 8.95656 12.5485 8.82093 13.0465 8.82093C14.3438 8.82093 14.9925 9.69249 14.9925 11.4356V17.6175H18.8496V10.9854C18.8496 9.27691 18.4442 7.9811 17.6334 7.09798C16.8226 6.21487 15.7512 5.77331 14.4191 5.77331C12.9249 5.77331 11.7608 6.414 10.9268 7.69539V7.73002H10.9095L10.9268 7.69539V6.05036H7.0697C7.09286 6.41977 7.10445 7.56839 7.10445 9.49625C7.10445 11.4241 7.09286 14.1312 7.0697 17.6175Z" fill="white"/>
</svg>
