<svg width="19" height="15" viewBox="0 0 19 15" fill="none" xmlns="http://www.w3.org/2000/svg">
<path d="M12.8766 0.247382V0.244141H13.7206L14.029 0.305733C14.2346 0.345719 14.4213 0.398121 14.589 0.462954C14.7567 0.527788 14.919 0.603432 15.0759 0.689872C15.2328 0.776311 15.3751 0.864388 15.5028 0.954069C15.6294 1.04268 15.743 1.13669 15.8437 1.2361C15.9432 1.33659 16.0985 1.36252 16.3095 1.3139C16.5205 1.26527 16.7477 1.19773 16.9912 1.11129C17.2346 1.02485 17.4754 0.927601 17.7134 0.819539C17.9515 0.711478 18.0965 0.642867 18.1484 0.613692C18.1993 0.583447 18.2263 0.567239 18.2296 0.565067L18.2328 0.560205L18.2491 0.5521L18.2653 0.543996L18.2815 0.535892L18.2977 0.527788L18.301 0.522925L18.3059 0.519684L18.3107 0.516442L18.314 0.511579L18.3302 0.506717L18.3464 0.503475L18.3432 0.527788L18.3383 0.5521L18.3302 0.576413L18.3221 0.600726L18.314 0.616934L18.3059 0.633142L18.2977 0.657455C18.2923 0.673663 18.2869 0.695269 18.2815 0.722289C18.2761 0.749308 18.2247 0.857353 18.1273 1.04646C18.0299 1.23556 17.9082 1.42735 17.7621 1.62186C17.6161 1.81636 17.4851 1.9633 17.3694 2.06272C17.2525 2.16322 17.1751 2.23345 17.1372 2.27343C17.0994 2.31449 17.0534 2.3523 16.9993 2.38689L16.9181 2.44038L16.9019 2.44848L16.8857 2.45659L16.8824 2.46145L16.8775 2.46469L16.8727 2.46793L16.8694 2.4728L16.8532 2.4809L16.837 2.48901L16.8337 2.49387L16.8289 2.49711L16.824 2.50035L16.8207 2.50521L16.8175 2.51008L16.8126 2.51332L16.8078 2.51656L16.8045 2.52142H16.8857L17.3401 2.42417C17.6431 2.35934 17.9326 2.281 18.2085 2.18915L18.6467 2.04327L18.6954 2.02707L18.7197 2.01896L18.736 2.01086L18.7522 2.00275L18.7684 1.99465L18.7847 1.98654L18.8171 1.98168L18.8496 1.97844V2.01086L18.8415 2.0141L18.8334 2.01896L18.8301 2.02382L18.8252 2.02707L18.8204 2.03031L18.8171 2.03517L18.8139 2.04003L18.809 2.04327L18.8041 2.04652L18.8009 2.05138L18.7977 2.05624L18.7928 2.05948L18.7847 2.07569L18.7766 2.0919L18.7717 2.09514C18.7695 2.09838 18.7008 2.19022 18.5656 2.37068C18.4303 2.55222 18.3573 2.64405 18.3464 2.64623C18.3356 2.64947 18.3205 2.66568 18.301 2.69485C18.2826 2.7251 18.1679 2.84559 17.9569 3.0563C17.7459 3.26701 17.5392 3.45448 17.3369 3.61873C17.1335 3.78406 17.0307 3.9872 17.0285 4.22817C17.0253 4.46805 17.0128 4.73928 16.9912 5.04183C16.9695 5.34439 16.9289 5.67125 16.8694 6.02244C16.8099 6.37363 16.7179 6.77073 16.5935 7.21376C16.4691 7.65678 16.3176 8.08901 16.139 8.51043C15.9605 8.93185 15.7739 9.31004 15.5791 9.64502C15.3843 9.98 15.2058 10.2636 15.0435 10.496C14.8812 10.7283 14.7162 10.9471 14.5484 11.1524C14.3807 11.3577 14.1686 11.589 13.9122 11.8461C13.6547 12.1022 13.514 12.2427 13.4902 12.2675C13.4653 12.2913 13.3593 12.3799 13.172 12.5334C12.9859 12.6879 12.7858 12.8424 12.5715 12.9969C12.3583 13.1504 12.1625 13.2784 11.9839 13.3811C11.8054 13.4837 11.5901 13.6009 11.338 13.7328C11.0869 13.8657 10.8153 13.9889 10.5232 14.1023C10.231 14.2158 9.92263 14.3211 9.59802 14.4184C9.2734 14.5156 8.95961 14.5913 8.65663 14.6453C8.35366 14.6993 8.0101 14.7453 7.62597 14.7831L7.04977 14.8398V14.8479H5.99477V14.8398L5.85681 14.8317C5.76484 14.8263 5.68909 14.8209 5.62958 14.8155C5.57007 14.8101 5.34554 14.7804 4.956 14.7264C4.56646 14.6723 4.26078 14.6183 4.03895 14.5643C3.81714 14.5102 3.48711 14.4076 3.04887 14.2563C2.61064 14.105 2.23571 13.9521 1.92408 13.7976C1.61353 13.6442 1.41876 13.5469 1.33977 13.5059C1.26186 13.4659 1.17421 13.4162 1.07683 13.3567L0.930748 13.2676L0.927518 13.2627L0.922633 13.2595L0.917764 13.2563L0.914517 13.2514L0.898287 13.2433L0.882056 13.2352L0.878826 13.2303L0.87394 13.2271L0.869071 13.2238L0.865825 13.219L0.862595 13.2141L0.85771 13.2109H0.849594V13.1785L0.865825 13.1817L0.882056 13.1866L0.955095 13.1947C1.00379 13.2001 1.13634 13.2082 1.35275 13.219C1.56917 13.2298 1.7991 13.2298 2.04256 13.219C2.28602 13.2082 2.53491 13.1838 2.78918 13.146C3.04347 13.1082 3.34374 13.0434 3.68999 12.9515C4.03626 12.8597 4.35438 12.7505 4.64438 12.6241C4.93329 12.4966 5.13887 12.4015 5.26115 12.3389C5.38233 12.2773 5.56736 12.1627 5.81623 11.9952L6.18954 11.744L6.19279 11.7391L6.19766 11.7359L6.20254 11.7327L6.20577 11.7278L6.20902 11.7229L6.21389 11.7197L6.21877 11.7165L6.222 11.7116L6.23823 11.7067L6.25446 11.7035L6.25771 11.6873L6.26258 11.6711L6.26746 11.6678L6.27069 11.663L6.14085 11.6549C6.05429 11.6495 5.97042 11.644 5.88927 11.6387C5.80812 11.6333 5.68098 11.6089 5.50784 11.5657C5.33473 11.5225 5.14807 11.4577 4.94788 11.3712C4.74771 11.2848 4.55294 11.1821 4.36357 11.0633C4.17422 10.9444 4.03733 10.8455 3.95293 10.7666C3.86962 10.6888 3.76141 10.5786 3.62831 10.436C3.49631 10.2923 3.3816 10.1448 3.28422 9.9935C3.18683 9.84223 3.09378 9.66769 3.00507 9.46997L2.87033 9.17497L2.86222 9.15066L2.8541 9.12635L2.84923 9.11014L2.84599 9.09393L2.87033 9.09717L2.89468 9.10204L3.07322 9.12635C3.19226 9.14256 3.37891 9.14795 3.63318 9.14256C3.88747 9.13716 4.0633 9.12635 4.16069 9.11014C4.25807 9.09393 4.31759 9.08312 4.33922 9.07772L4.37169 9.06962L4.41226 9.06151L4.45284 9.05341L4.45609 9.04855L4.46096 9.04531L4.46584 9.04206L4.46907 9.0372L4.43661 9.0291L4.40415 9.02099L4.37169 9.01289L4.33922 9.00479L4.30676 8.99668C4.28513 8.99128 4.24726 8.98047 4.19315 8.96426C4.13905 8.94806 3.99297 8.88862 3.75491 8.78597C3.51687 8.68332 3.32751 8.58337 3.18683 8.48612C3.04581 8.38858 2.91135 8.28192 2.78431 8.16681C2.65771 8.05011 2.51868 7.89991 2.36718 7.71622C2.2157 7.53253 2.08044 7.31911 1.96141 7.07598C1.84239 6.83286 1.75312 6.60054 1.6936 6.37902C1.63432 6.15881 1.59521 5.93366 1.57675 5.70637L1.54752 5.366L1.56375 5.36924L1.57998 5.3741L1.59621 5.38221L1.61244 5.39031L1.62867 5.39841L1.64491 5.40652L1.89648 5.51998C2.06421 5.59562 2.2725 5.66046 2.52137 5.71448C2.77025 5.7685 2.91903 5.79823 2.96772 5.80362L3.04076 5.81173H3.18683L3.1836 5.80687L3.17872 5.80362L3.17385 5.80038L3.1706 5.79552L3.16737 5.79066L3.16249 5.78742L3.15762 5.78417L3.15437 5.77931L3.13814 5.77121L3.12191 5.7631L3.11868 5.75824L3.1138 5.755L3.10893 5.75176L3.10568 5.7469L3.08945 5.73879L3.07322 5.73069L3.06999 5.72582C3.06674 5.72365 3.02021 5.68908 2.93039 5.62209C2.84165 5.55402 2.7486 5.46595 2.65122 5.35789C2.55383 5.24983 2.45645 5.13637 2.35906 5.01752C2.2615 4.89839 2.1746 4.77093 2.09937 4.63662C2.02364 4.50155 1.94355 4.32973 1.85915 4.12119C1.77584 3.91372 1.71254 3.70464 1.66925 3.49393C1.62598 3.28322 1.60163 3.07521 1.59621 2.8699C1.59081 2.66459 1.59621 2.48901 1.61244 2.34313C1.62867 2.19725 1.66114 2.03246 1.70983 1.84877C1.75852 1.66508 1.82887 1.47058 1.92083 1.26527L2.05879 0.957311L2.06691 0.932998L2.07502 0.908685L2.07991 0.905444L2.08314 0.900581L2.08638 0.895719L2.09125 0.892477L2.09614 0.895719L2.09937 0.900581L2.10261 0.905444L2.10748 0.908685L2.11237 0.911927L2.1156 0.91679L2.11885 0.921652L2.12371 0.924894L2.13183 0.941102L2.13995 0.957311L2.14483 0.960552L2.14806 0.965415L2.36718 1.20854C2.51326 1.37063 2.68639 1.55162 2.88656 1.75152C3.08676 1.95142 3.19766 2.05515 3.2193 2.06272C3.24095 2.07136 3.26799 2.09621 3.30045 2.13728C3.33291 2.17727 3.44112 2.2729 3.62507 2.42417C3.80903 2.57544 4.04978 2.75105 4.34734 2.95094C4.64492 3.15084 4.97494 3.34805 5.33742 3.54255C5.69992 3.73705 6.08946 3.91264 6.50604 4.06932C6.92264 4.22601 7.21479 4.32866 7.38251 4.37729C7.55024 4.42591 7.83697 4.48804 8.24274 4.56368C8.64851 4.63933 8.9542 4.68795 9.15978 4.70956C9.36538 4.73116 9.50605 4.74359 9.58179 4.74684L9.6954 4.75008L9.69217 4.72577L9.68729 4.70145L9.65482 4.49885C9.63319 4.36378 9.62236 4.17468 9.62236 3.93155C9.62236 3.68843 9.6413 3.46422 9.67917 3.2589C9.71705 3.05359 9.77386 2.84559 9.84959 2.63488C9.92534 2.42417 9.99947 2.25505 10.072 2.12756C10.1455 2.00113 10.2418 1.85688 10.3609 1.69479C10.4799 1.53271 10.6341 1.36523 10.8234 1.19233C11.0128 1.01944 11.2292 0.865458 11.4727 0.730393C11.7161 0.595328 11.9407 0.492664 12.1463 0.422433C12.3519 0.352202 12.525 0.306267 12.6656 0.284662C12.8063 0.263056 12.8766 0.250624 12.8766 0.247382Z" fill="white"/>
</svg>
